<svg width="18px" height="18px" viewBox="0 0 256 256" version="1.1" xmlns="http://www.w3.org/2000/svg" preserveAspectRatio="xMidYMid">
    <path fill="#000000" d="M212.681176,174.456471 C213.188235,157.416471 209.665882,140.882353 201.070588,127.430588 C210.171765,115.745882 216.263529,100.108235 216.263529,83.1764706 C216.263529,55.4070588 199.312941,36.4282353 176.908235,36.4282353 C158.470588,35.7082353 140.449412,46.1976471 130.851765,46.1976471 C120.943529,46.1976471 105.04,35.7082353 86.5929412,36.4282353 C60.1364706,37.2470588 38.5364706,57.0870588 38.5364706,88.2588235 C38.5364706,106.894118 46.5552941,121.675294 56.3623529,131.854118 C45.2047059,144.023529 40.5364706,161.072941 40.5364706,178.475294 C40.5364706,215.830588 68.9882353,234.456471 92.9458824,235.176471 C111.383529,235.896471 126.783529,226.894118 139.670588,226.894118 C152.247059,226.894118 166.287059,235.896471 186.094118,235.176471 C210.976471,234.357647 235.176471,216.336471 235.176471,180.621176 C235.068235,178.183529 234.757647,175.745882 234.136471,173.308235 C228.258824,173.308235 215.263529,169.875294 212.681176,174.456471 Z M170.051765,22.0988235 C179.858824,10.2141176 185.425882,-3.82117647 183.270588,-17.4541176 C173.251765,-18.7152941 161.225882,-12.3152941 151.418824,-0.430588235 C142.724706,10.2141176 136.235294,24.3482353 138.385882,37.8823529 C148.818824,39.4541176 160.247059,33.9811765 170.051765,22.0988235 Z"></path>
</svg> 